<svg width="1225" height="1379" viewBox="0 0 1225 1379" fill="none" xmlns="http://www.w3.org/2000/svg">
<path fill-rule="evenodd" clip-rule="evenodd" d="M17.2496 379.264C17.2151 369.749 9.50545 362.047 0 362.047C9.52666 362.047 17.2496 354.309 17.2496 344.765C17.2839 354.28 24.9937 361.983 34.4991 361.983C24.9723 361.983 17.2496 369.72 17.2496 379.264Z" fill="#CBD5E1"/>
<path fill-rule="evenodd" clip-rule="evenodd" d="M1022.18 109.325C1022.14 99.8098 1014.43 92.1072 1004.93 92.1072C1014.45 92.1072 1022.18 84.3699 1022.18 74.8257C1022.21 84.3406 1029.92 92.0433 1039.42 92.0433C1029.9 92.0433 1022.18 99.7806 1022.18 109.325Z" fill="#CBD5E1"/>
<line x1="213.375" y1="1.99976" x2="213.375" y2="632.765" stroke="#CBD5E1" stroke-width="1.11287"/>
<path d="M819.076 361.458L819.076 633" stroke="#CBD5E1" stroke-width="1.11287"/>
<path d="M819.076 2L819.076 91.03" stroke="#CBD5E1" stroke-width="1.11287"/>
<path d="M616.533 361.458L616.533 633" stroke="#CBD5E1" stroke-width="1.11287"/>
<path d="M617 26L617 518" stroke="#CBD5E1" stroke-width="1.11287"/>
<path d="M415.102 361.458L415.102 633" stroke="#CBD5E1" stroke-width="1.11287"/>
<path d="M415.102 2L415.102 91.03" stroke="#CBD5E1" stroke-width="1.11287"/>
<line x1="1021.56" y1="1.99976" x2="1021.56" y2="632.765" stroke="#CBD5E1" stroke-width="1.11287"/>
<line x1="1223.56" y1="2" x2="1223.56" y2="1088" stroke="#CBD5E1" stroke-width="1.11287"/>
<line x1="10.5564" y1="2" x2="10.5564" y2="1377" stroke="#CBD5E1" stroke-width="1.11287"/>
<line x1="10.7734" y1="451.039" x2="1219.27" y2="451.039" stroke="#CBD5E1" stroke-width="1.11287"/>
<line x1="10.7734" y1="361.12" x2="1219.27" y2="361.12" stroke="#CBD5E1" stroke-width="1.11287"/>
<line x1="11.1289" y1="270.759" x2="213.672" y2="270.759" stroke="#CBD5E1" stroke-width="1.11287"/>
<line x1="1020.51" y1="270.759" x2="1219.71" y2="270.759" stroke="#CBD5E1" stroke-width="1.11287"/>
<line x1="10.7734" y1="91.363" x2="1219.27" y2="91.363" stroke="#CBD5E1" stroke-width="1.11287"/>
<line x1="11" y1="187.443" x2="1219.5" y2="187.443" stroke="#CBD5E1" stroke-width="1.11287"/>
<line x1="10.7734" y1="1.44332" x2="1219.27" y2="1.44334" stroke="#CBD5E1" stroke-width="1.11287"/>
<line x1="10.7734" y1="540.959" x2="1219.27" y2="540.959" stroke="#CBD5E1" stroke-width="1.11287"/>
</svg>
