<svg width="1225" height="1088" viewBox="0 0 1225 1088" fill="none" xmlns="http://www.w3.org/2000/svg">
<path fill-rule="evenodd" clip-rule="evenodd" d="M17.2496 379.264C17.2151 369.749 9.50545 362.047 0 362.047C9.52666 362.047 17.2496 354.309 17.2496 344.765C17.2839 354.28 24.9937 361.983 34.4991 361.983C24.9723 361.983 17.2496 369.72 17.2496 379.264Z" fill="white"/>
<path fill-rule="evenodd" clip-rule="evenodd" d="M1022.18 109.325C1022.14 99.8098 1014.43 92.1072 1004.93 92.1072C1014.45 92.1072 1022.18 84.3699 1022.18 74.8257C1022.21 84.3406 1029.92 92.0433 1039.42 92.0433C1029.9 92.0433 1022.18 99.7806 1022.18 109.325Z" fill="white"/>
<line x1="213.376" y1="1.99976" x2="213.376" y2="632.765" stroke="white" stroke-opacity="0.2" stroke-width="1.11287"/>
<path d="M819.076 361.458L819.076 633" stroke="url(#paint0_linear_1055_4318)" stroke-opacity="0.2" stroke-width="1.11287"/>
<path d="M819.076 2L819.076 91.03" stroke="url(#paint1_linear_1055_4318)" stroke-opacity="0.2" stroke-width="1.11287"/>
<path d="M616.532 361.458L616.532 633" stroke="url(#paint2_linear_1055_4318)" stroke-opacity="0.2" stroke-width="1.11287"/>
<path d="M617 26L617 518" stroke="url(#paint3_linear_1055_4318)" stroke-opacity="0.2" stroke-width="1.11287"/>
<path d="M415.102 361.458L415.102 633" stroke="url(#paint4_linear_1055_4318)" stroke-opacity="0.2" stroke-width="1.11287"/>
<path d="M415.102 2L415.102 91.03" stroke="url(#paint5_linear_1055_4318)" stroke-opacity="0.2" stroke-width="1.11287"/>
<line x1="1021.56" y1="1.99976" x2="1021.56" y2="632.765" stroke="white" stroke-opacity="0.2" stroke-width="1.11287"/>
<line x1="1223.56" y1="2" x2="1223.56" y2="1088" stroke="white" stroke-opacity="0.2" stroke-width="1.11287"/>
<line x1="10.5564" y1="2" x2="10.5564" y2="1008" stroke="white" stroke-opacity="0.2" stroke-width="1.11287"/>
<line x1="10.7737" y1="451.039" x2="1219.27" y2="451.039" stroke="white" stroke-opacity="0.2" stroke-width="1.11287"/>
<line x1="10.7737" y1="361.12" x2="1219.27" y2="361.12" stroke="white" stroke-opacity="0.2" stroke-width="1.11287"/>
<line x1="11.1288" y1="270.759" x2="213.672" y2="270.759" stroke="white" stroke-opacity="0.2" stroke-width="1.11287"/>
<line x1="1020.51" y1="270.759" x2="1219.71" y2="270.759" stroke="white" stroke-opacity="0.2" stroke-width="1.11287"/>
<line x1="10.7737" y1="91.363" x2="1219.27" y2="91.363" stroke="white" stroke-opacity="0.2" stroke-width="1.11287"/>
<line x1="11" y1="187.443" x2="1219.5" y2="187.443" stroke="white" stroke-opacity="0.2" stroke-width="1.11287"/>
<line x1="10.7737" y1="1.44332" x2="1219.27" y2="1.44334" stroke="white" stroke-opacity="0.2" stroke-width="1.11287"/>
<line x1="10.7737" y1="540.959" x2="1219.27" y2="540.959" stroke="white" stroke-opacity="0.2" stroke-width="1.11287"/>
<defs>
<linearGradient id="paint0_linear_1055_4318" x1="819.294" y1="286.814" x2="819.732" y2="286.814" gradientUnits="userSpaceOnUse">
<stop stop-color="white"/>
<stop offset="1" stop-color="white" stop-opacity="0"/>
</linearGradient>
<linearGradient id="paint1_linear_1055_4318" x1="819.081" y1="283.906" x2="819.092" y2="283.906" gradientUnits="userSpaceOnUse">
<stop stop-color="white"/>
<stop offset="1" stop-color="white" stop-opacity="0"/>
</linearGradient>
<linearGradient id="paint2_linear_1055_4318" x1="616.751" y1="286.814" x2="617.189" y2="286.814" gradientUnits="userSpaceOnUse">
<stop stop-color="white"/>
<stop offset="1" stop-color="white" stop-opacity="0"/>
</linearGradient>
<linearGradient id="paint3_linear_1055_4318" x1="617.027" y1="1583.88" x2="617.082" y2="1583.88" gradientUnits="userSpaceOnUse">
<stop stop-color="white"/>
<stop offset="1" stop-color="white" stop-opacity="0"/>
</linearGradient>
<linearGradient id="paint4_linear_1055_4318" x1="415.321" y1="286.814" x2="415.759" y2="286.814" gradientUnits="userSpaceOnUse">
<stop stop-color="white"/>
<stop offset="1" stop-color="white" stop-opacity="0"/>
</linearGradient>
<linearGradient id="paint5_linear_1055_4318" x1="415.108" y1="283.906" x2="415.118" y2="283.906" gradientUnits="userSpaceOnUse">
<stop stop-color="white"/>
<stop offset="1" stop-color="white" stop-opacity="0"/>
</linearGradient>
</defs>
</svg>
